<svg xmlns="http://www.w3.org/2000/svg" width="1024" height="1024"><path fill="#cf6d4b" d="M410 545a382 382 0 0 1 12.492 1.762l4.322.665c25.668 4.003 51.28 8.362 76.903 12.648q8.752 1.464 17.506 2.923a22310 22310 0 0 1 85.235 14.36 5519 5519 0 0 0 43.155 7.176c47.477 7.715 47.477 7.715 55.357 9.323 7.846 1.518 15.235 2.25 23.232 2.256 11.27.347 21.867 1.157 31.798 6.887 10.986 13.136 13.467 31.778 16.441 48.152l.693 3.625c3.374 17.68 5.611 35.354 7.1 53.287.326 3.847.692 7.689 1.062 11.532 2.834 31.122 3.228 66.954-17.145 92.746-31.042 34.153-100.141 35.141-143.088 37.331-13.516.628-27.034.868-40.563 1.014l-3.139.042C451.296 852.43 451.296 852.43 409 820c-22.65-22.326-24.428-59.17-24.821-89.07.031-16.02 1.324-31.928 2.821-47.867l.448-4.93C398.673 556.326 398.673 556.326 410 545"/><path fill="#ce6d4b" d="M615 358c.62 2.933.62 2.933.615 7.13l.03 4.79-.046 5.322.012 5.552c.006 5.045-.011 10.09-.038 15.136-.024 5.266-.021 10.532-.021 15.798q-.01 13.27-.065 26.54a8071 8071 0 0 0-.063 30.731c-.003 10.88-.022 21.76-.047 32.64q-.009 4.72-.013 9.438c-.007 5.85-.031 11.701-.058 17.552 0 1.754 0 3.508-.002 5.316l-.03 4.798-.014 4.198L615 546c-3.05 1.525-5.394.583-8.728.01l-4.305-.731-4.705-.818-9.936-1.692-5.191-.891c-7.993-1.367-15.992-2.696-23.99-4.026l-19.332-3.227-5.113-.853a13829 13829 0 0 0-62.325-10.272c-12.992-2.107-25.97-4.263-38.917-6.63-12.84-2.335-25.722-4.43-38.6-6.548l-5.264-.869-4.729-.776C380 508 380 508 376 507c-.478 2.623-.478 2.623-.447 6.555l.005 4.479.067 4.993.023 5.196q.027 5.618.082 11.235c.055 5.915.085 11.83.108 17.744.06 14.695.162 29.39.272 44.084.092 12.399.165 24.797.209 37.196.028 5.849.086 11.697.145 17.545q.022 5.343.04 10.687l.074 4.981-.004 4.496.03 3.934L376 683l-5 1-4.58.94c-73.577 14.473-73.577 14.473-100.016-.147-10-7.458-12.093-21.55-14.01-33.09-3.778-27.186-2.537-54.902-1.246-82.22.468-10.82.435-21.555.11-32.378C248.683 449.281 248.683 449.281 264 426c19.865-19.42 53.645-17.96 79.336-17.75 16.58-.035 32.425-3.634 48.519-7.314 5.744-1.297 11.513-2.408 17.297-3.51l16.213-3.178c8.37-1.64 16.74-3.27 25.118-4.871 21.026-4.022 42.019-8.213 63.017-12.377 45.935-9.108 45.935-9.108 63.57-12.477a1480 1480 0 0 0 24.873-4.99c4.47-.912 8.477-1.533 13.057-1.533"/><path fill="#ce6d4b" d="M409 193c5.942-.929 11.235.55 17 2l5.334.792 4.607.778 5.405.906 5.771.981 6.254 1.053q8.518 1.435 17.036 2.88 7.32 1.242 14.64 2.477 19.773 3.341 39.545 6.695c51.189 8.68 102.385 17.312 153.605 25.807a32809 32809 0 0 1 56.564 9.427q6.34 1.065 12.677 2.142l3.615.605c7.831 1.341 7.831 1.341 8.947 2.457.826 6.687 1.327 13.412 1.89 20.125.09 1.05.177 2.1.268 3.182 2.369 28.548 3.877 57.13 4.904 85.755l.145 3.898c3.369 92.672 3.369 92.672-12.16 112.348-11.63 11.674-26.87 15.672-42.983 15.95q-4.003-.083-8.001-.258l-4.01-.176c-18.375-1.2-36.65-6.085-49.756-19.736-22.72-30.546-9.066-95.48-4.87-130.337.17-1.54.342-3.079.52-4.665q.493-4.354 1.116-8.69c.424-3.822.424-3.822-.063-9.396-4.744-.39-4.744-.39-10 1l-3.539.597c-1.09.225-2.178.45-3.3.68l-3.883.79-4.216.87q-4.755.967-9.511 1.93l-5.174 1.05a4514 4514 0 0 1-25.511 5.037 38429 38429 0 0 0-19.679 3.851c-14.13 2.77-28.254 5.558-42.38 8.346-21.975 4.336-43.95 8.67-65.932 12.974l-5.284 1.035Q441.296 359.585 434 361l-5.753 1.128-5.74 1.114-5.221 1.02C413 365 413 365 409 365c-.54-2.692-.54-2.692-.595-6.543l-.092-4.395-.037-4.883-.084-5.093a2290 2290 0 0 1-.18-16.781c-.01-.95-.01-.95-.053-5.758-.08-9.01-.144-18.02-.181-27.03a2546 2546 0 0 0-.332-31.3c-.144-9.01-.196-18.02-.215-27.031a772 772 0 0 0-.15-11.544c-.104-5.363-.103-10.716-.074-16.08l-.167-4.896c.148-7.31.148-7.31 2.16-10.666"/><path fill="#be6e51" d="M410 547h1a399 399 0 0 1-2.208 10.25c-9.125 41.275-15.478 82.655-19.354 124.75l-.458 4.826c-3.658 39.548-7.887 90.003 16.52 124.224 23.022 27.488 72.59 30.462 105.555 33.634 24.312 2.034 48.568 2.198 72.945 1.816l3.097-.042c140.635-1.892 140.635-1.892 175.404-34.114 16.796-18.084 19.368-44.05 18.778-67.698-.454-9.392-1.52-18.698-2.716-28.021l-.448-3.594c-3.602-28.515-9.264-56.396-17.393-83.967l-1.514-5.193-1.365-4.486C757 615 757 615 757.64 609.512L758 605c-4.437-1.062-4.437-1.062-9-1v-1c4.778-.08 4.778-.08 10 1 2.205 3.48 2.205 3.48 3.551 8.282l1.573 5.487q.78 3.04 1.55 6.08l.83 3.138c7.34 27.797 11.827 56.022 14.933 84.576l.437 3.818c3.564 31.69 5.567 69.234-14.932 96-29.013 32.763-95.603 34.28-135.924 36.732-14.456.8-28.92 1.136-43.395 1.291q-3.123.033-6.246.074C452.015 851.17 452.015 851.17 410 819c-22.515-22.165-24.29-58.763-24.68-88.463.031-15.91 1.316-31.708 2.805-47.537l.446-4.897a958 958 0 0 1 18.96-120.777l.713-3.207A266 266 0 0 1 410 547"/><path fill="#f6cbb9" d="M410 545c2.388.257 4.767.593 7.14.96 1.464.225 2.927.45 4.434.68l4.676.735 4.629.71c5.73.886 11.434 1.778 17.121 2.915v1c-5.765.18-11.304-.085-17-1l-1-1c-2.875-.226-5.75-.449-8.629-.621C418 549 418 549 413.996 547.346L410 547c-1.752 3.579-2.533 6.236-3.31 10.086l-.769 3.36c-.838 3.757-1.607 7.523-2.368 11.296l-.831 3.971c-7.379 35.41-11.91 71.148-15.034 107.162l-.442 4.864c-3.56 40.014-7.58 90.696 17.177 125.238 24.391 29.039 77.619 31.895 112.454 34.933 22.533 1.689 45.04 1.825 67.623 1.528l6.246-.068c139.354-1.69 139.354-1.69 173.818-35.326 18.811-21.344 20.441-52.776 18.784-79.873-.57-7.559-1.398-15.081-2.285-22.609l-.437-3.855c-3.25-28.371-8.302-56.253-15.634-83.857l-.815-3.095c-3.284-12.263-3.284-12.263-5.177-16.755l-4-1h5c1.596 3.389 1.596 3.389 2.963 8.238l1.56 5.534q.814 3.072 1.615 6.148l.837 3.167c7.36 28.108 12.04 56.559 15.275 85.413l.45 3.857c3.658 31.927 5.798 69.89-14.738 96.95-28.554 32.507-93.661 34.186-133.6 36.865-15.56.946-31.134 1.317-46.72 1.482q-3.143.033-6.284.074C451.274 852.413 451.274 852.413 409 820c-22.65-22.326-24.428-59.17-24.821-89.07.031-16.02 1.324-31.928 2.821-47.867l.448-4.93C398.673 556.326 398.673 556.326 410 545"/><path fill="#d2947e" d="M615 358c.62 2.933.62 2.933.615 7.13l.03 4.79-.046 5.322.012 5.552c.006 5.045-.011 10.09-.038 15.136-.024 5.266-.021 10.532-.021 15.798q-.01 13.27-.065 26.54a8071 8071 0 0 0-.063 30.731c-.003 10.88-.022 21.76-.047 32.64q-.009 4.72-.013 9.438c-.007 5.85-.031 11.701-.058 17.552 0 1.754 0 3.508-.002 5.316l-.03 4.798-.014 4.198L615 546c-3.52 1.76-7.281.35-11.062-.25l-4.973-.766c-4.847-.96-9.302-2.371-13.965-3.984-2.33-.358-4.662-.702-7-1v-1c2.164-.128 4.332-.176 6.5-.187l3.656-.043L591 539v2c8.953.349 8.953.349 13-1v2c4.436 1.668 4.436 1.668 9 1 1.587-5.428 1.128-11.075 1.022-16.685l.004-5.409c-.006-4.92-.05-9.838-.113-14.758-.056-5.131-.062-10.263-.073-15.395a4580 4580 0 0 0-.192-29.186c-.1-11.071-.15-22.142-.195-33.213-.094-22.785-.253-45.57-.453-68.354l-2 2v5l-4-2v-2c-7.301-.374-13.908.014-21 2l-2.812 2.688c-4.576 3.319-8.128 2.27-13.555 1.511L567 369v2c-5.207.41-10.404.511-15.625.656L547 372v2q-5.495.562-11 1v1c-7.29 2.641-13.303 3.087-21 3-3.34.636-6.674 1.3-10 2-4.125.188-4.125.188-7 0v-1a507 507 0 0 1 12.43-2.547l3.916-.767q6.263-1.223 12.529-2.436 4.079-.796 8.156-1.594c13.78-2.691 27.566-5.349 41.355-7.992 8.534-1.64 17.051-3.353 25.557-5.13C606.413 358.62 610.42 358 615 358"/><path fill="#dd967d" d="m409 193 4 1h-3c-.37 2.655-.37 2.655-.36 6.454l-.013 4.334.032 4.817v5.025c.001 5.52.025 11.038.048 16.558q.009 5.716.013 11.434c.01 9.031.034 18.062.064 27.093.033 10.278.05 20.556.065 30.834q.048 31.725.151 63.451l1-1c-.01-4.15-.134-8.29-.258-12.437L411 347l3-1c.688 3.938.688 3.938 1 8l1-3c2-4 2-4 4-6l2 5h4v2c4 1 4 1 6 0l3 3v3l2 1v-2h4l1-3q5-.125 10 0l1-1a161 161 0 0 1 11 0v2c-3.673.91-7.301 1.681-11.016 2.383l-3.401.664q-3.576.695-7.153 1.376a2439 2439 0 0 0-10.95 2.12l-6.933 1.34-3.318.644c-4.135.784-8.01 1.473-12.229 1.473-.503-2.689-.503-2.689-.508-6.537l-.034-4.39.024-4.878-.02-5.088c-.019-5.59-.007-11.178.007-16.767q-.005-5.789-.012-11.576-.008-12.153.022-24.305c.021-9.388.014-18.775-.008-28.162-.02-9.006-.018-18.011-.006-27.017q.004-5.766-.01-11.532c-.01-5.358.005-10.715.027-16.072l-.024-4.885.034-4.381.005-3.847z"/><path fill="#f1cabb" d="M410 545c2.388.257 4.767.593 7.14.96 1.464.225 2.927.45 4.434.68l4.676.735 4.629.71c5.73.886 11.434 1.778 17.121 2.915v1c-5.765.18-11.304-.085-17-1l-1-1c-2.875-.226-5.75-.449-8.629-.621C418 549 418 549 413.85 547.346L410 547c-.905 3.688-1.04 6.334-.955 10.086l-.019 3.36c-.01 3.766.036 7.53.082 11.296q.006 4.02.001 8.038c.002 7.315.053 14.628.113 21.942.053 7.629.061 15.257.073 22.886.03 14.464.1 28.928.185 43.392.114 19.667.173 39.334.232 59l.043 14.12.014 4.622q.044 13.66.116 27.321.044 8.48.082 16.96.02 3.952.045 7.904.032 5.367.054 10.733l.026 3.212c.007 2.376-.036 4.752-.092 7.128h-1a327 327 0 0 1-.127-10.357l-.005-3.376c-.004-3.77 0-7.541.003-11.312l-.006-8.064q-.005-10.992 0-21.985c.003-7.648 0-15.296 0-22.945q-.004-19.272.005-38.544.007-22.32-.002-44.638a68170 68170 0 0 1-.003-38.239 35892 35892 0 0 0-.001-22.876q-.004-10.752.005-21.503 0-3.96-.002-7.918-.002-5.379.006-10.759l-.007-3.21c.02-7.16.02-7.16 1.134-8.274"/><path fill="#d58c71" d="M509 210c5.705-.307 11.037.538 16.652 1.496l5.537.943 5.749.999 5.83.986c10.547 1.813 10.547 1.813 14.232 2.576v1c-9.551 1.224-9.551 1.224-12 0-4.097-.724-7.795-.911-12-1l-1 5h-2c-1-3-1-3 0-7h-6l-1 4-3-4-2 1v3h-2v-3h-2l1-4c-2.937-.687-2.937-.687-6-1z"/><path fill="#d4896e" d="M719 245c8.835.667 17.463 1.975 26.188 3.5l4.04.684 7.284 1.26L759 251v1c-4.475.132-8.827.17-13.266-.473-3.234-.464-3.234-.464-8.734-.527-1.562 3.375-1.562 3.375-2 7l-3 1-1-3 1-2h-3l-2-4c-3-2-3-2-6-3z"/><path fill="#d58266" d="M594 531c1.098 4.39.751 5.945-1 10h-2v-2c-3 .375-3 .375-6 1l8 2c-5.616 1.404-10.648.106-16.25-.875l-3.414-.566A330 330 0 0 1 565 539v-1c3.975-.153 7.12.03 11 1v-2l5-1 3-3c6-3 6-3 10-2"/><path fill="#d9a08a" d="M569 368q-4.091 1.01-8.187 2l-4.606 1.125C552 372 552 372 547 372v2q-5.495.562-11 1v1c-7.29 2.641-13.303 3.087-21 3-3.34.636-6.674 1.3-10 2-4.125.188-4.125.188-7 0v-1a564 564 0 0 1 13.133-2.687l4.06-.796c4.31-.844 8.62-1.68 12.932-2.517l8.664-1.695q7.965-1.558 15.93-3.106l3.244-.63L559 368l3.143-.637C565 367 565 367 569 368"/><path fill="#d3927b" d="M629 230c9.986.293 19.91 2.314 29.75 3.938l5.078.802 4.781.787 4.374.711L676 237l-1 2c-9.294.353-9.294.353-12-1a206 206 0 0 0-6.125-.437L651 237v-2a486 486 0 0 0-11 0l-2-1-5.187-.375L628 233z"/><path fill="#e6b9a7" d="M410 545c2.388.257 4.767.593 7.14.96 1.464.225 2.927.45 4.434.68l4.676.735 4.629.71c5.73.886 11.434 1.778 17.121 2.915v1c-5.765.18-11.304-.085-17-1l-1-1c-2.875-.226-5.75-.449-8.629-.621C418 549 418 549 413.836 547.29L410 547c-.796 3.973-.904 6.959-.746 10.96l.041 3.44c.052 3.66.159 7.316.267 10.975.073 3.651.134 7.302.193 10.954q.06 3.422.153 6.844c.066 2.608.085 5.218.092 7.827h-1c-.103-3.786-.14-7.553-.133-11.34l-.003-3.49q0-3.666.006-7.332.006-5.632-.007-11.266 0-3.55.004-7.1l-.006-3.43c.024-7.927.024-7.927 1.139-9.042"/><path fill="#d49077" d="M397 505v2q4.988 1.06 10 2v1c1.986.57 3.99 1.081 6 1.563l3.375.816L419 513c-7.173 1.793-14.556-.557-21.75-1.812l-5.004-.83-4.73-.815-4.367-.75L380 508v-2c5.32-1.68 11.73-3.635 17-1"/><path fill="#d59882" d="M621 321h6v2c-3.196.843-6.428 1.547-9.668 2.2l-2.99.603q-3.146.63-6.293 1.248c-3.208.63-6.41 1.282-9.613 1.935q-3.053.609-6.104 1.213l-5.634 1.12C582 332 582 332 577 331c4-2 4-2 8-2v-2h10v-2c2.804-.288 5.62-.454 8.438-.562 8.466-.342 8.466-.342 9.562-1.438l4.063.063L621 323z"/><path fill="#d79982" d="M412 194c6.452-.46 12.496.405 18.848 1.496l5.517.943 5.697.999 5.803.986c10.418 1.8 10.418 1.8 14.135 2.576v1c-3.374.102-6.75.13-10.125.125l-5.695.008c-8.108-.208-8.108-.208-11.18-1.133l1-3c-2.937.375-2.937.375-6 1v-1c-4.98-.25-9.958-.386-14.941-.523L411 197z"/><path fill="#d5937b" d="M677 590c8.779.756 17.43 2.094 26.125 3.5l4.344.684 4.101.66 3.743.6L718 596v1c-2.436.102-4.875.13-7.312.125l-4.114.008C703 597 703 597 700 596c-9.53-.235-9.53-.235-12 1l-1-2-3.5.063L680 595l-1-3z"/><path fill="#d2927b" d="M458.563 352.813 464 353v2c-2.69.794-2.69.794-6.422 1.543l-4.047.814-4.281.83-4.234.866c-10.504 2.075-10.504 2.075-15.016.947l2-1 1-2 4 2v-2h4l1-3q5-.125 10 0c1-1 1-1 6.563-1.187"/><path fill="#d39079" d="m502.625 343.875 3.586-.012c2.93.004 5.86.065 8.789.137v1c-4.057.913-8.108 1.76-12.187 2.563l-3.487.708-3.369.67-3.094.616C490 350 490 350 485 350c4.701-7.836 9.13-6.153 17.625-6.125"/><path fill="#cf876e" d="m298 422-3.312.875C291 424 291 424 288 426c-4.644 1.058-9.186 1.164-13.937 1.188l-4.09.042L267 427l1-2c24.389-5.806 24.389-5.806 30-3"/><path fill="#daa590" d="M557 218c9.365.525 18.51 1.933 27.75 3.5l4.172.684 3.937.66 3.578.6L599 224v1c-2.29.102-4.583.13-6.875.125l-3.867.008C585 225 585 225 583 224l-5-.5c-5-.5-5-.5-7-1.5l-4.625-.437L562 221v-2h-5z"/><path fill="#d89d88" d="M450 519c2.999-.101 6-.13 9-.125l5.063-.008L468 519v1c3.904.293 7.808.45 11.719.621L483 521v2l3 2c-8.135-.652-16.132-1.698-24.187-3l-3.463-.54A360 360 0 0 1 450 520z"/><path fill="#e3b5a3" d="M487 525c2.226-.13 4.457-.176 6.688-.187l3.761-.043C501 525 501 525 506 527c2.305.46 4.622.862 6.945 1.219l4.012.636q4.18.647 8.36 1.29l4.003.636 3.665.565C536 532 536 532 539 534c-10.637-.976-21.094-2.739-31.625-4.5l-5.934-.973-5.605-.933-5.14-.854L487 526z"/><path fill="#d5957e" d="M479 205c10.082.388 20.121 1.98 30 4v1a143 143 0 0 1-7 .688l-3.937.324L495 211v-2l-5 2-4-3c-2.33-.35-4.664-.686-7-1z"/><path fill="#d7947a" d="m610 360-1 1 2 1v5l-4-2v-2c-9.947-.351-9.947-.351-14 1-2.666.04-5.334.044-8 0 3.91-2.606 7.309-2.923 11.938-3.687l4.84-.825C606 359 606 359 610 360"/></svg>